<svg xmlns="http://www.w3.org/2000/svg" xmlns:xlink="http://www.w3.org/1999/xlink" version="1.1" id="图层_1" x="0px" y="0px" viewBox="30.5 0 39.5 48.5"  xml:space="preserve">
<style type="text/css">
	.st0{clip-path:url(#SVGID_2_);fill:url(#SVGID_3_);}
	.st1{clip-path:url(#SVGID_5_);fill:url(#SVGID_6_);}
	.st2{clip-path:url(#SVGID_8_);fill:url(#SVGID_9_);}
	.st3{clip-path:url(#SVGID_11_);fill:#231815;}
	.st4{clip-path:url(#SVGID_13_);fill:url(#SVGID_14_);}
	.st5{clip-path:url(#SVGID_16_);fill:url(#SVGID_17_);}
	.st6{clip-path:url(#SVGID_19_);fill:#231815;}
	.st7{clip-path:url(#SVGID_21_);fill:url(#SVGID_22_);}
	.st8{clip-path:url(#SVGID_24_);fill:#231815;}
	.st9{clip-path:url(#SVGID_26_);fill:url(#SVGID_27_);}
	.st10{clip-path:url(#SVGID_29_);fill:url(#SVGID_30_);}
	.st11{clip-path:url(#SVGID_32_);fill:url(#SVGID_33_);}
	.st12{clip-path:url(#SVGID_35_);fill:url(#SVGID_36_);}
</style>
<title>DS new-title office 0402</title>
<desc>Created with Sketch.</desc>
<g>
	<defs>
		<path id="SVGID_1_" d="M60.2,29.3c0.4,1.1,0.5,2.1,0.5,3.1c0,0.9-0.2,1.7-0.5,2.6c-0.7,1.7-2.1,3.7-4.3,5.8    c-0.7,0.8-3.9,3.9-5,4.9c-0.2,0.2-0.4,0.5-0.5,0.9c0,0,0,0,0,0.1c0,0,0,0,0,0.1c0,0,0,0.6,0,0.6c0,0,0,0,0,0.1c0,0,0,0.1,0,0.1    c0,0,0,0,0,0.1c0,0.1,0,0.1,0,0.2l0,0.2l18.9-14.7c0.2-0.1,0.6-0.5,0.6-1c0-0.4-0.3-0.7-0.4-0.8c-0.2-0.2-1-0.9-1-0.9L51.7,17.7    C54.6,20.6,58.8,25.2,60.2,29.3"/>
	</defs>
	<clipPath id="SVGID_2_">
		<use xlink:href="#SVGID_1_" style="overflow:visible;"/>
	</clipPath>
	
		<linearGradient id="SVGID_3_" gradientUnits="userSpaceOnUse" x1="-37.7134" y1="105.046" x2="-37.1522" y2="105.046" gradientTransform="matrix(0 54.2654 -54.2654 0 5760.5083 2064.2173)">
		<stop offset="0" style="stop-color:#838383"/>
		<stop offset="4.245690e-02" style="stop-color:#838383"/>
		<stop offset="0.213" style="stop-color:#B6B6B6"/>
		<stop offset="0.4096" style="stop-color:#EAEAEA"/>
		<stop offset="0.5056" style="stop-color:#FFFFFF"/>
		<stop offset="0.5879" style="stop-color:#FAFAFA"/>
		<stop offset="0.6858" style="stop-color:#EBEBEC"/>
		<stop offset="0.7918" style="stop-color:#D3D3D4"/>
		<stop offset="0.9027" style="stop-color:#B2B2B3"/>
		<stop offset="0.96" style="stop-color:#9E9E9F"/>
		<stop offset="1" style="stop-color:#9E9E9F"/>
	</linearGradient>
	<rect x="50.4" y="17.7" class="st0" width="19.5" height="30.5"/>
</g>
<g>
	<defs>
		<path id="SVGID_4_" d="M68.6,32.7c-0.7,0-2.3,0.1-3.6,0.2c-1.2,0.1-1.5,0.6-2.1,1.9c-2.1,4.5-5.8,7.1-5.7,7.3    c0.1,0.1,2.4-1.7,2.7-1.9c4-3.2,6.8-5.5,8.8-6.9c0.2-0.2,0.3-0.3,0.3-0.4C69.1,32.7,68.9,32.7,68.6,32.7    C68.7,32.7,68.6,32.7,68.6,32.7"/>
	</defs>
	<clipPath id="SVGID_5_">
		<use xlink:href="#SVGID_4_" style="overflow:visible;"/>
	</clipPath>
	
		<linearGradient id="SVGID_6_" gradientUnits="userSpaceOnUse" x1="-37.8302" y1="105.6093" x2="-37.2691" y2="105.6093" gradientTransform="matrix(1.3122 14.9984 -14.9984 1.3122 1696.4252 461.9219)">
		<stop offset="0" style="stop-color:#A9AAAA"/>
		<stop offset="0.2126" style="stop-color:#231815"/>
		<stop offset="0.8061" style="stop-color:#231815"/>
		<stop offset="1" style="stop-color:#231815"/>
	</linearGradient>
	<polygon class="st1" points="56.4,32.7 57.3,43.2 70,42.1 69.1,31.6  "/>
</g>
<g>
	<defs>
		<path id="SVGID_7_" d="M51,15c-0.1,0.1-0.4,0.4-0.6,0.7c-0.1,0.1-0.1,0.4,0,0.6c0.1,0.2,0.3,0.4,0.3,0.5c0.1,0.1,0.9,0.8,0.9,0.8    l16.8,13.1c-2.9-2.9-7.1-7.5-8.4-11.5c-0.4-1.1-0.5-2.1-0.5-3.1c0-0.9,0.2-1.7,0.5-2.7c0.7-1.7,2.1-3.7,4.3-5.9    c0.7-0.7,3.5-3.5,5-4.9c0.2-0.2,0.4-0.5,0.5-0.9c0.1-0.3,0.1-1,0.1-1.1l0-0.2L51,15z"/>
	</defs>
	<clipPath id="SVGID_8_">
		<use xlink:href="#SVGID_7_" style="overflow:visible;"/>
	</clipPath>
	
		<linearGradient id="SVGID_9_" gradientUnits="userSpaceOnUse" x1="-37.4617" y1="105.0457" x2="-36.9005" y2="105.0457" gradientTransform="matrix(0 54.0942 -54.0942 0 5742.4434 2026.7932)">
		<stop offset="0" style="stop-color:#E3E4E4"/>
		<stop offset="4.000000e-02" style="stop-color:#E3E4E4"/>
		<stop offset="0.1194" style="stop-color:#DEDFDF"/>
		<stop offset="0.214" style="stop-color:#D0D1D1"/>
		<stop offset="0.25" style="stop-color:#C8C9CA"/>
		<stop offset="0.4017" style="stop-color:#EBECEC"/>
		<stop offset="0.5056" style="stop-color:#FFFFFF"/>
		<stop offset="0.5512" style="stop-color:#FAF9F9"/>
		<stop offset="0.6109" style="stop-color:#EAE9E9"/>
		<stop offset="0.6783" style="stop-color:#D1CECE"/>
		<stop offset="0.7516" style="stop-color:#ADA9A8"/>
		<stop offset="0.8295" style="stop-color:#7F7977"/>
		<stop offset="0.9101" style="stop-color:#493F3D"/>
		<stop offset="0.96" style="stop-color:#231815"/>
		<stop offset="1" style="stop-color:#231815"/>
	</linearGradient>
	<rect x="50.3" y="0.3" class="st2" width="19.5" height="30.4"/>
</g>
<g>
	<defs>
		<rect id="SVGID_10_" x="0.3" y="0" width="99.7" height="75.4"/>
	</defs>
	<clipPath id="SVGID_11_">
		<use xlink:href="#SVGID_10_" style="overflow:visible;"/>
	</clipPath>
	<path class="st3" d="M59.1,18.9c-0.3-1-0.5-1.9-0.5-2.9c0-0.9,0.2-1.7,0.6-2.6C60.8,9.8,68,3.5,69.5,2.3c0,0,0,0,0,0   c-1.3,0.9-6.6,5.4-8,6.7c-2.3,2.2-4,4.5-4,7c0,2.7,1.8,5.4,3.9,7.8c1.3,1.6,2.6,2.9,3.8,4.1c1.3,1.2,2.2,2,3.2,2.8   C67.4,29.7,60.9,23.9,59.1,18.9"/>
</g>
<g>
	<defs>
		<path id="SVGID_12_" d="M59.2,13.4c-0.4,0.9-0.6,1.7-0.6,2.6c0,1,0.2,1.9,0.5,2.9c1.7,4.9,8.2,10.7,9.3,11.8    c-2.9-2.9-7.1-7.5-8.4-11.5c-0.4-1.1-0.5-2.1-0.5-3.1c0-0.9,0.2-1.7,0.5-2.7c0.7-1.7,2.1-3.7,4.3-5.9c0.7-0.7,3.5-3.5,5-4.9    c0.1-0.1,0.1-0.1,0.2-0.2C68,3.5,60.8,9.8,59.2,13.4"/>
	</defs>
	<clipPath id="SVGID_13_">
		<use xlink:href="#SVGID_12_" style="overflow:visible;"/>
	</clipPath>
	
		<linearGradient id="SVGID_14_" gradientUnits="userSpaceOnUse" x1="-38.1069" y1="104.661" x2="-37.5457" y2="104.661" gradientTransform="matrix(0 -50.483 50.483 0 -5219.5381 -1893.0764)">
		<stop offset="0" style="stop-color:#231815"/>
		<stop offset="4.000000e-02" style="stop-color:#231815"/>
		<stop offset="5.197261e-02" style="stop-color:#392F2D"/>
		<stop offset="7.709956e-02" style="stop-color:#625B58"/>
		<stop offset="0.1049" style="stop-color:#888280"/>
		<stop offset="0.1347" style="stop-color:#A8A4A3"/>
		<stop offset="0.1672" style="stop-color:#C3C0C0"/>
		<stop offset="0.2032" style="stop-color:#D9D7D7"/>
		<stop offset="0.2443" style="stop-color:#EAE9E9"/>
		<stop offset="0.2934" style="stop-color:#F6F6F6"/>
		<stop offset="0.3587" style="stop-color:#FDFDFD"/>
		<stop offset="0.5056" style="stop-color:#FFFFFF"/>
		<stop offset="0.6563" style="stop-color:#FDFDFD"/>
		<stop offset="0.7395" style="stop-color:#F5F5F5"/>
		<stop offset="0.8062" style="stop-color:#E7E7E7"/>
		<stop offset="0.8642" style="stop-color:#D3D3D4"/>
		<stop offset="0.916" style="stop-color:#BABABB"/>
		<stop offset="0.9605" style="stop-color:#9E9E9F"/>
		<stop offset="1" style="stop-color:#9E9E9F"/>
	</linearGradient>
	<rect x="58.6" y="2.3" class="st4" width="10.8" height="28.3"/>
</g>
<g>
	<defs>
		<path id="SVGID_15_" d="M51.7,17.7c2.9,2.9,7.2,7.5,8.5,11.6c0.4,1.1,0.5,2.1,0.5,3.1c0,0.9-0.2,1.7-0.5,2.6    c-0.7,1.7-2.1,3.7-4.3,5.8c-0.7,0.8-3.9,3.9-5,4.9c-0.1,0.1-0.1,0.1-0.2,0.2c1.5-1.2,8.7-7.4,10.2-11c0.4-0.9,0.6-1.7,0.6-2.6    c0-1-0.2-1.9-0.5-2.9C59.4,24.6,52.8,18.7,51.7,17.7L51.7,17.7z"/>
	</defs>
	<clipPath id="SVGID_16_">
		<use xlink:href="#SVGID_15_" style="overflow:visible;"/>
	</clipPath>
	
		<linearGradient id="SVGID_17_" gradientUnits="userSpaceOnUse" x1="-37.8693" y1="104.7832" x2="-37.3081" y2="104.7832" gradientTransform="matrix(0 -50.4675 50.4675 0 -5231.9702 -1865.1591)">
		<stop offset="0" style="stop-color:#717071"/>
		<stop offset="4.045960e-02" style="stop-color:#717071"/>
		<stop offset="5.494465e-02" style="stop-color:#828182"/>
		<stop offset="8.774841e-02" style="stop-color:#A3A3A3"/>
		<stop offset="0.1243" style="stop-color:#C0C0C0"/>
		<stop offset="0.1648" style="stop-color:#D7D7D7"/>
		<stop offset="0.211" style="stop-color:#E9E9E9"/>
		<stop offset="0.2664" style="stop-color:#F6F6F6"/>
		<stop offset="0.3399" style="stop-color:#FDFDFD"/>
		<stop offset="0.5056" style="stop-color:#FFFFFF"/>
		<stop offset="0.5821" style="stop-color:#FCFCFC"/>
		<stop offset="0.6436" style="stop-color:#F3F2F2"/>
		<stop offset="0.6999" style="stop-color:#E3E1E1"/>
		<stop offset="0.753" style="stop-color:#CCCAC9"/>
		<stop offset="0.804" style="stop-color:#AFABAA"/>
		<stop offset="0.8534" style="stop-color:#8C8684"/>
		<stop offset="0.9014" style="stop-color:#625A58"/>
		<stop offset="0.9473" style="stop-color:#322825"/>
		<stop offset="0.9605" style="stop-color:#231815"/>
		<stop offset="1" style="stop-color:#231815"/>
	</linearGradient>
	<rect x="50.8" y="17.7" class="st5" width="10.8" height="28.3"/>
</g>
<g>
	<defs>
		<rect id="SVGID_18_" x="0.3" y="0" width="99.7" height="75.4"/>
	</defs>
	<clipPath id="SVGID_19_">
		<use xlink:href="#SVGID_18_" style="overflow:visible;"/>
	</clipPath>
	<path class="st6" d="M58.8,24.6c-1.3-1.6-2.6-2.9-3.8-4.1c-1.3-1.2-2.3-2.1-3.3-2.9c1.1,1,7.7,6.9,9.4,11.9c0.3,1,0.5,1.9,0.5,2.9   c0,0.9-0.2,1.7-0.6,2.6c-1.5,3.6-8.7,9.8-10.2,11c0,0,0,0,0,0c1.3-0.9,6.6-5.3,8-6.7c2.3-2.2,4-4.5,4-6.9   C62.7,29.8,60.9,27.1,58.8,24.6"/>
	<path class="st6" d="M43.3,16c0,2.6-1.8,5.3-4.2,7.7c-1.5,1.6-3.1,2.9-4.5,4c-1.5,1.2-2.6,2-3.7,2.7c1.2-1,8.7-6.7,10.6-11.6   c0.4-1,0.6-1.9,0.6-2.9c0-0.9-0.2-1.9-0.6-2.9c-2-4.9-9.4-10.7-10.6-11.6c1.1,0.7,2.2,1.5,3.7,2.7c1.4,1.1,3,2.5,4.5,4   C41.5,10.7,43.3,13.4,43.3,16"/>
</g>
<g>
	<defs>
		<path id="SVGID_20_" d="M30.9,1.5c1.1,1,8,6.7,9.8,11.6c0.4,1,0.6,1.9,0.6,2.9c0,0.9-0.2,1.9-0.6,2.9c-1.8,4.9-8.7,10.7-9.8,11.6    c1.2-1,8.7-6.7,10.6-11.6c0.4-1,0.6-1.9,0.6-2.9c0-0.9-0.2-1.9-0.6-2.9C39.6,8.2,32.1,2.5,30.9,1.5z"/>
	</defs>
	<clipPath id="SVGID_21_">
		<use xlink:href="#SVGID_20_" style="overflow:visible;"/>
	</clipPath>
	
		<linearGradient id="SVGID_22_" gradientUnits="userSpaceOnUse" x1="-38.1072" y1="105.0833" x2="-37.546" y2="105.0833" gradientTransform="matrix(0 -51.6156 51.6156 0 -5387.4067 -1936.4307)">
		<stop offset="0" style="stop-color:#231815"/>
		<stop offset="4.000000e-02" style="stop-color:#231815"/>
		<stop offset="7.309736e-02" style="stop-color:#504745"/>
		<stop offset="0.1085" style="stop-color:#797270"/>
		<stop offset="0.1468" style="stop-color:#9D9897"/>
		<stop offset="0.1873" style="stop-color:#BBB8B7"/>
		<stop offset="0.2308" style="stop-color:#D4D2D1"/>
		<stop offset="0.2784" style="stop-color:#E7E6E6"/>
		<stop offset="0.3322" style="stop-color:#F5F4F4"/>
		<stop offset="0.3974" style="stop-color:#FDFDFC"/>
		<stop offset="0.5056" style="stop-color:#FFFFFF"/>
		<stop offset="0.6215" style="stop-color:#FDFDFD"/>
		<stop offset="0.6854" style="stop-color:#F5F5F5"/>
		<stop offset="0.7367" style="stop-color:#E8E7E7"/>
		<stop offset="0.7812" style="stop-color:#D6D4D3"/>
		<stop offset="0.8215" style="stop-color:#BEBBBA"/>
		<stop offset="0.8586" style="stop-color:#A19C9B"/>
		<stop offset="0.8933" style="stop-color:#7E7776"/>
		<stop offset="0.9261" style="stop-color:#554D4B"/>
		<stop offset="0.9563" style="stop-color:#291E1B"/>
		<stop offset="0.96" style="stop-color:#231815"/>
		<stop offset="1" style="stop-color:#231815"/>
	</linearGradient>
	<rect x="30.9" y="1.5" class="st7" width="11.2" height="29"/>
</g>
<g>
	<defs>
		<rect id="SVGID_23_" x="0.3" y="0" width="99.7" height="75.4"/>
	</defs>
	<clipPath id="SVGID_24_">
		<use xlink:href="#SVGID_23_" style="overflow:visible;"/>
	</clipPath>
	<path class="st8" d="M69.6,31.5c-1.4-1.3-7.7-7.3-9.4-12.4c-0.3-1-0.5-2.1-0.5-3.1c0-0.9,0.2-1.7,0.5-2.6c0.8-2,2.5-4.1,4.2-5.8   c0.7-0.8,4-3.9,5-4.9c0.2-0.2,0.4-0.6,0.5-0.9C70,1.5,70,0.8,70,0.6L70,0L50.9,14.9c-0.2,0.2-0.5,0.4-0.6,0.8   c-0.1-0.4-0.4-0.7-0.6-0.8L30.4,0V32l19.1-14.9c0.2-0.2,0.5-0.4,0.6-0.8c0.1,0.3,0.3,0.6,0.4,0.6c1.4,1.3,7.7,7.3,9.4,12.4   c0.3,1,0.5,2.1,0.5,3.1c0,0.9-0.2,1.7-0.5,2.6c-0.8,1.9-2.5,4-4.2,5.8c-0.7,0.8-4,3.9-5,4.9c-0.2,0.2-0.4,0.6-0.5,0.9   c0,0.2-0.1,1-0.1,1.3l0,0.6l19.1-14.9c0.3-0.2,0.7-0.6,0.7-1.1C70.1,32,69.7,31.6,69.6,31.5 M49.5,17L30.6,31.7V0.3L49.5,15   c0.2,0.2,0.6,0.5,0.6,1C50.1,16.5,49.7,16.8,49.5,17 M50.4,16.3c-0.1-0.2-0.1-0.4,0-0.6c0.1-0.3,0.4-0.6,0.6-0.7L69.8,0.3l0,0.2   c0,0.1,0,0.7-0.1,1.1c-0.1,0.4-0.2,0.7-0.5,0.9c-1.5,1.4-4.3,4.2-5,4.9c-2.2,2.2-3.6,4.2-4.3,5.9c-0.4,0.9-0.5,1.8-0.5,2.7   c0,1,0.2,2.1,0.5,3.1c1.3,4.1,5.5,8.7,8.4,11.5L51.7,17.6c0,0-0.8-0.7-0.9-0.8C50.7,16.7,50.5,16.5,50.4,16.3 M69.3,33.4L50.4,48.1   l0-0.2c0-0.3,0-1,0.1-1.2c0.1-0.4,0.2-0.7,0.5-0.9c1.1-1,4.3-4.1,5-4.9c2.2-2.2,3.6-4.2,4.3-5.8c0.4-0.9,0.5-1.8,0.5-2.6   c0-1-0.2-2.1-0.5-3.1c-1.4-4.1-5.6-8.8-8.5-11.6l16.8,13.1c0,0,0.8,0.7,1,0.9c0.1,0.1,0.4,0.4,0.4,0.8   C69.9,32.9,69.5,33.3,69.3,33.4"/>
</g>
<g>
	<defs>
		<path id="SVGID_25_" d="M51.6,16.2c-0.3,0-0.4,0-0.4,0.2c0,0.1,0.1,0.3,0.3,0.4c2,1.4,4.8,3.7,8.8,6.9c0.3,0.2,2.3,2,2.3,1.9    c0,0-1.9-2-2.1-2.2c-2.2-2-3.9-5.1-3.9-5.1c-0.6-1.2-0.9-1.8-2.1-1.9C53.2,16.3,52.3,16.2,51.6,16.2    C51.6,16.2,51.6,16.2,51.6,16.2"/>
	</defs>
	<clipPath id="SVGID_26_">
		<use xlink:href="#SVGID_25_" style="overflow:visible;"/>
	</clipPath>
	
		<linearGradient id="SVGID_27_" gradientUnits="userSpaceOnUse" x1="-36.8859" y1="104.5759" x2="-36.3247" y2="104.5759" gradientTransform="matrix(-1.318 15.0652 15.0652 1.318 -1566.8486 434.495)">
		<stop offset="0" style="stop-color:#A9AAAA"/>
		<stop offset="0.2126" style="stop-color:#231815"/>
		<stop offset="0.8061" style="stop-color:#231815"/>
		<stop offset="1" style="stop-color:#231815"/>
	</linearGradient>
	<polygon class="st9" points="63.4,16.3 62.5,26.7 50.3,25.6 51.2,15.2  "/>
</g>
<g>
	<defs>
		<path id="SVGID_28_" d="M30.6,0.3l0,1l0.3,0.2c1.1,0.7,2.2,1.5,3.7,2.7c1.4,1.1,3,2.5,4.5,4c2.4,2.4,4.2,5.1,4.2,7.7    c0,2.6-1.8,5.3-4.2,7.7c-1.5,1.6-3.1,2.9-4.5,4c-1.5,1.2-2.6,2-3.7,2.7c0,0,0,0,0,0l-0.3,0.2l0,1L49.5,17c0.2-0.2,0.6-0.5,0.6-1    c0-0.5-0.4-0.8-0.6-1L30.6,0.3z"/>
	</defs>
	<clipPath id="SVGID_29_">
		<use xlink:href="#SVGID_28_" style="overflow:visible;"/>
	</clipPath>
	
		<linearGradient id="SVGID_30_" gradientUnits="userSpaceOnUse" x1="-37.479" y1="104.7646" x2="-36.9178" y2="104.7646" gradientTransform="matrix(0 55.8795 -55.8795 0 5894.5459 2094.6465)">
		<stop offset="0" style="stop-color:#717071"/>
		<stop offset="4.045960e-02" style="stop-color:#717071"/>
		<stop offset="0.1197" style="stop-color:#838283"/>
		<stop offset="0.2794" style="stop-color:#B3B2B3"/>
		<stop offset="0.5033" style="stop-color:#FEFEFE"/>
		<stop offset="0.5056" style="stop-color:#FFFFFF"/>
		<stop offset="0.5767" style="stop-color:#ECECEC"/>
		<stop offset="0.7206" style="stop-color:#BCBCBB"/>
		<stop offset="0.9229" style="stop-color:#6F6E6D"/>
		<stop offset="0.96" style="stop-color:#605F5E"/>
		<stop offset="1" style="stop-color:#605F5E"/>
	</linearGradient>
	<rect x="30.6" y="0.3" class="st10" width="19.5" height="31.4"/>
</g>
<g>
	<defs>
		<path id="SVGID_31_" d="M48.9,16.2c-0.7,0-1.6,0-2.9,0.2c-1.2,0.1-1.4,0.7-2.1,1.9c0,0-1.8,3.1-3.9,5.1c-0.2,0.2-0.5,0.5-0.7,0.7    c-1.1,1-1.6,1.5-1.6,1.5c0.1,0.1,0.6-0.5,1.8-1.3c0.3-0.2,0.5-0.4,0.8-0.6c4-3.1,6.8-5.5,8.8-6.9c0.2-0.2,0.3-0.3,0.3-0.4    C49.3,16.3,49.2,16.2,48.9,16.2C48.9,16.2,48.9,16.2,48.9,16.2"/>
	</defs>
	<clipPath id="SVGID_32_">
		<use xlink:href="#SVGID_31_" style="overflow:visible;"/>
	</clipPath>
	
		<linearGradient id="SVGID_33_" gradientUnits="userSpaceOnUse" x1="-36.8922" y1="104.666" x2="-36.3311" y2="104.666" gradientTransform="matrix(1.3156 15.0378 -15.0378 1.3156 1665.6139 433.7194)">
		<stop offset="0" style="stop-color:#A9AAAA"/>
		<stop offset="0.2126" style="stop-color:#231815"/>
		<stop offset="0.8061" style="stop-color:#231815"/>
		<stop offset="1" style="stop-color:#231815"/>
	</linearGradient>
	<polygon class="st11" points="36.8,16.3 37.7,26.7 50.2,25.6 49.3,15.2  "/>
</g>
<g>
	<defs>
		<path id="SVGID_34_" d="M30.6,1.3l0,29.4l0.3-0.2c1.1-1,8-6.7,9.8-11.6c0.4-1,0.6-1.9,0.6-2.9s-0.2-1.9-0.6-2.9    C38.9,8.2,32,2.5,30.9,1.5L30.6,1.3z"/>
	</defs>
	<clipPath id="SVGID_35_">
		<use xlink:href="#SVGID_34_" style="overflow:visible;"/>
	</clipPath>
	
		<linearGradient id="SVGID_36_" gradientUnits="userSpaceOnUse" x1="-37.4591" y1="104.6907" x2="-36.898" y2="104.6907" gradientTransform="matrix(0 52.4458 -52.4458 0 5526.5308 1965.8719)">
		<stop offset="0" style="stop-color:#FAFAFA"/>
		<stop offset="1.818180e-02" style="stop-color:#FAFAFA"/>
		<stop offset="0.47" style="stop-color:#ECECED"/>
		<stop offset="0.9617" style="stop-color:#888888"/>
		<stop offset="1" style="stop-color:#888888"/>
	</linearGradient>
	<rect x="30.6" y="1.3" class="st12" width="10.7" height="29.4"/>
</g>







</svg>