<?xml version="1.0" encoding="UTF-8"?><svg id="svg_canvas" data-noselect="" viewBox="0 0 800 600" width="800" height="600" preserveAspectRatio="none" version="1.1" xmlns="http://www.w3.org/2000/svg" xmlns:xlink="http://www.w3.org/1999/xlink"><defs></defs> <g id="background" data-noselect=""><rect fill="#ffffff" width="800" height="600" data-noselect=""></rect> <!----></g> <g id="shape_RdM9EJqK8D" transform="translate(457.93972901003997,349.15175879397003) rotate(0,8.4736180904523,8.4736180904523) scale(1,1)" filter="" style="cursor: move; opacity: 1;"><g><rect fill="rgba(0,0,0,0)" width="36.947236180905" height="36.947236180905" x="-10" y="-10"></rect><svg version="1.1" id="图层_1" xmlns="http://www.w3.org/2000/svg" xmlns:xlink="http://www.w3.org/1999/xlink" x="0px" y="0px" width="16.947236180905" height="16.947236180905" viewBox="0 0 100 100" enable-background="new 0 0 100 100" xml:space="preserve" shapetype="ellipse" class="style-removed" preserveAspectRatio="none" data-parent="shape_RdM9EJqK8D">
	 <linearGradient class="linearGradient" x1="0%" y1="0%" x2="0%" y2="100%" gradientTransform="translate(0.5,0.5) rotate(0) translate(-0.5,-0.5)">
		<stop id="stop1_WQawdjufis" offset="0%" class="linearGradientColor1" stop-color="#05a"></stop>
		<stop id="stop2_w4r7txroYv" offset="100%" class="linearGradientColor2" stop-color="#0a5"></stop>
	</linearGradient>

	<radialGradient class="radialGradient" cx="50%" cy="50%" r="50%" fx="50%" fy="50%">
		<stop offset="0%" class="radialGradientColor1" stop-color="#05a"></stop>
		<stop offset="100%" class="radialGradientColor2" stop-color="#0a5"></stop>
	</radialGradient>
	<clipPath id="f_ellipse_7w1Ra3XR7U" class="clipPath">
		<ellipse fill="none" class="element" stroke="#dddddd" stroke-width="1" stroke-miterlimit="10" cx="50" cy="50" rx="50" ry="50" data-ignorecolor=""></ellipse>
	</clipPath>
	<ellipse class="fill-color element" fill="#2491f6" opacity="1" cx="50" cy="50" rx="49" ry="49" stroke-width="0"></ellipse>
	<ellipse class="stroke-color element" fill="none" stroke="#dddddd" stroke-width="0" stroke-miterlimit="10" cx="50" cy="50" rx="50" ry="50" clip-path="url(#f_ellipse_7w1Ra3XR7U)"></ellipse>
</svg></g></g><g id="shape_jC5BDTauFZ" transform="translate(481.13068378390994,349.15175879397003) rotate(0,8.4736180904523,8.4736180904523) scale(1,1)" filter="" style="cursor: move; opacity: 1;"><g><rect fill="rgba(0,0,0,0)" width="36.947236180905" height="36.947236180905" x="-10" y="-10"></rect><svg version="1.1" id="图层_1" xmlns="http://www.w3.org/2000/svg" xmlns:xlink="http://www.w3.org/1999/xlink" x="0px" y="0px" width="16.947236180905" height="16.947236180905" viewBox="0 0 100 100" enable-background="new 0 0 100 100" xml:space="preserve" shapetype="ellipse" class="style-removed" preserveAspectRatio="none" data-parent="shape_jC5BDTauFZ">
	 <linearGradient class="linearGradient" x1="0%" y1="0%" x2="0%" y2="100%" gradientTransform="translate(0.5,0.5) rotate(0) translate(-0.5,-0.5)">
		<stop id="stop1_WQawdjufis" offset="0%" class="linearGradientColor1" stop-color="#05a"></stop>
		<stop id="stop2_w4r7txroYv" offset="100%" class="linearGradientColor2" stop-color="#0a5"></stop>
	</linearGradient>

	<radialGradient class="radialGradient" cx="50%" cy="50%" r="50%" fx="50%" fy="50%">
		<stop offset="0%" class="radialGradientColor1" stop-color="#05a"></stop>
		<stop offset="100%" class="radialGradientColor2" stop-color="#0a5"></stop>
	</radialGradient>
	<clipPath id="f_ellipse_7w1Ra3XR7U" class="clipPath">
		<ellipse fill="none" class="element" stroke="#dddddd" stroke-width="1" stroke-miterlimit="10" cx="50" cy="50" rx="50" ry="50" data-ignorecolor=""></ellipse>
	</clipPath>
	<ellipse class="fill-color element" fill="#07a280" opacity="1" cx="50" cy="50" rx="49" ry="49" stroke-width="0"></ellipse>
	<ellipse class="stroke-color element" fill="none" stroke="#dddddd" stroke-width="0" stroke-miterlimit="10" cx="50" cy="50" rx="50" ry="50" clip-path="url(#f_ellipse_7w1Ra3XR7U)"></ellipse>
</svg></g></g><g id="shape_ZHqdsqmzKp" transform="translate(502.5377189597899,349.79729778779) rotate(0,18.731155778894,8.4736180904523) scale(1,1)" filter="" style="cursor: move; opacity: 1;"><g><rect fill="rgba(0,0,0,0)" width="57.462311557789" height="36.947236180905" x="-10" y="-10"></rect><svg version="1.1" id="图层_1" xmlns="http://www.w3.org/2000/svg" xmlns:xlink="http://www.w3.org/1999/xlink" x="0px" y="0px" viewBox="0 0 283.465 118.465" style="enable-background:new 0 0 283.465 118.465;" xml:space="preserve" width="37.462311557789" height="16.947236180905" class="style-removed" preserveAspectRatio="none" data-parent="shape_ZHqdsqmzKp">
<path d="M0.17,59.249L0.17,59.249c0-32.426,26.286-58.712,58.712-58.712l166.112,0
	c32.426,0,58.712,26.286,58.712,58.712v0c0,32.426-26.286,58.712-58.712,58.712H58.882C26.457,117.961,0.17,91.675,0.17,59.249z" fill="#f69534" stroke-width="0"></path>
</svg></g></g><g id="shape_a5Dq2JeucR" transform="translate(-54.00000000000006,-99.79999999999998) rotate(0,375,385) scale(1,1)" filter="" style="cursor: move; opacity: 1;"><g><svg xmlns="http://www.w3.org/2000/svg" version="1.1" xmlns:xlink="http://www.w3.org/1999/xlink" width="1122" height="770" viewBox="0 0 1122 770" data-parent="shape_a5Dq2JeucR"><rect fill="rgba(0,0,0,0)" width="694" height="128" x="107" y="321"></rect><g data-width="693.83355859375" transform="translate(107.083220703125, 0)"><path d="M5.22-12.33L50.52-12.33L50.52-22.99L15.88-22.99L15.88-86.94L5.22-86.94L5.22-12.33Z" transform="translate(0 418) " fill="rgb(36, 145, 246)" stroke="rgb(36, 145, 246)" stroke-width="0.178" data-glyph-w="53.65673828125" data-glyph-h="111.4931640625" data-glyph-ascender="89.654296875" data-glyph-descender="-21.8388671875"></path><path d="M54.86-32.29L13.64-32.29Q14.79-29.00 17.45-26.33L17.45-26.33Q22.10-21.63 28.74-21.63L28.74-21.63Q37.04-21.63 41.85-28.47L41.85-28.47L50.57-22.36Q42.63-10.97 28.74-10.97L28.74-10.97Q17.71-10.97 9.93-18.81L9.93-18.81Q2.09-26.59 2.09-37.62L2.09-37.62Q2.09-48.69 9.93-56.48L9.93-56.48Q17.71-64.26 28.74-64.26L28.74-64.26Q39.81-64.26 47.60-56.48L47.60-56.48Q55.38-48.69 55.38-37.62L55.38-37.62Q55.38-34.95 54.86-32.29L54.86-32.29ZM13.64-42.95L43.89-42.95Q42.74-46.29 40.07-48.95L40.07-48.95Q35.37-53.60 28.74-53.60L28.74-53.60Q22.10-53.60 17.45-48.95L17.45-48.95Q14.79-46.29 13.64-42.95L13.64-42.95Z" transform="translate(53.65673828125 418) " fill="rgb(246, 52, 52)" stroke="rgb(246, 52, 52)" stroke-width="0.178" data-glyph-w="57.470703125" data-glyph-h="111.4931640625" data-glyph-ascender="89.654296875" data-glyph-descender="-21.8388671875"></path><path d="M27.43-53.60Q21.37-53.60 17.03-48.95L17.03-48.95Q12.75-44.25 12.75-37.62L12.75-37.62Q12.75-30.98 17.03-26.33L17.03-26.33Q21.37-21.63 27.43-21.63L27.43-21.63Q33.49-21.63 37.77-26.33L37.77-26.33Q42.06-30.98 42.06-37.62L42.06-37.62Q42.06-44.25 37.77-48.95L37.77-48.95Q33.49-53.60 27.43-53.60L27.43-53.60ZM52.72-62.96L52.72-13.64Q52.72-2.61 44.93 5.22L44.93 5.22Q37.15 13.01 26.07 13.01L26.07 13.01Q18.81 13.01 12.59 9.35L12.59 9.35Q6.53 5.75 2.98-0.31L2.98-0.31L12.23-5.64Q16.88 2.35 26.07 2.35L26.07 2.35Q32.71 2.35 37.41-2.35L37.41-2.35Q42.06-7.00 42.06-13.64L42.06-13.64L42.06-16.25Q35.58-10.97 27.06-10.97L27.06-10.97Q16.72-10.97 9.40-18.81L9.40-18.81Q2.09-26.59 2.09-37.62L2.09-37.62Q2.09-48.69 9.40-56.48L9.40-56.48Q16.72-64.26 27.06-64.26L27.06-64.26Q35.58-64.26 42.06-58.99L42.06-58.99L42.06-62.96L52.72-62.96Z" transform="translate(111.12744140625 418) " fill="rgb(246, 149, 52)" stroke="rgb(246, 149, 52)" stroke-width="0.178" data-glyph-w="56.37353515625" data-glyph-h="111.4931640625" data-glyph-ascender="89.654296875" data-glyph-descender="-21.8388671875"></path><path d="M54.86-32.29L13.64-32.29Q14.79-29.00 17.45-26.33L17.45-26.33Q22.10-21.63 28.74-21.63L28.74-21.63Q37.04-21.63 41.85-28.47L41.85-28.47L50.57-22.36Q42.63-10.97 28.74-10.97L28.74-10.97Q17.71-10.97 9.93-18.81L9.93-18.81Q2.09-26.59 2.09-37.62L2.09-37.62Q2.09-48.69 9.93-56.48L9.93-56.48Q17.71-64.26 28.74-64.26L28.74-64.26Q39.81-64.26 47.60-56.48L47.60-56.48Q55.38-48.69 55.38-37.62L55.38-37.62Q55.38-34.95 54.86-32.29L54.86-32.29ZM13.64-42.95L43.89-42.95Q42.74-46.29 40.07-48.95L40.07-48.95Q35.37-53.60 28.74-53.60L28.74-53.60Q22.10-53.60 17.45-48.95L17.45-48.95Q14.79-46.29 13.64-42.95L13.64-42.95Z" transform="translate(167.5009765625 418) " fill="rgb(36, 145, 246)" stroke="rgb(36, 145, 246)" stroke-width="0.178" data-glyph-w="57.470703125" data-glyph-h="111.4931640625" data-glyph-ascender="89.654296875" data-glyph-descender="-21.8388671875"></path><path d="M14.32-40.44L14.32-40.44L14.32-12.33L3.66-12.33L3.66-62.96L14.32-62.96L14.32-58.93Q20.53-64.26 29.00-64.26L29.00-64.26Q38.35-64.26 44.98-57.68L44.98-57.68Q51.62-51.10 51.62-41.74L51.62-41.74L51.62-12.33L40.96-12.33L40.96-40.44Q40.96-45.92 37.09-49.79L37.09-49.79Q33.18-53.71 27.64-53.71L27.64-53.71Q22.15-53.71 18.23-49.79L18.23-49.79Q14.32-45.92 14.32-40.44Z" transform="translate(224.9716796875 418) " fill="rgb(7, 162, 128)" stroke="rgb(7, 162, 128)" stroke-width="0.178" data-glyph-w="55.2763671875" data-glyph-h="111.4931640625" data-glyph-ascender="89.654296875" data-glyph-descender="-21.8388671875"></path><path d="M27.43-53.60Q21.37-53.60 17.03-48.95L17.03-48.95Q12.75-44.25 12.75-37.62L12.75-37.62Q12.75-30.98 17.03-26.33L17.03-26.33Q21.37-21.63 27.43-21.63L27.43-21.63Q33.49-21.63 37.77-26.33L37.77-26.33Q42.06-30.98 42.06-37.62L42.06-37.62Q42.06-44.25 37.77-48.95L37.77-48.95Q33.49-53.60 27.43-53.60L27.43-53.60ZM42.06-58.99L42.06-58.99L42.06-86.94L52.72-86.94L52.72-12.33L42.06-12.33L42.06-16.25Q35.58-10.97 27.06-10.97L27.06-10.97Q16.72-10.97 9.40-18.81L9.40-18.81Q2.09-26.59 2.09-37.62L2.09-37.62Q2.09-48.69 9.40-56.48L9.40-56.48Q16.72-64.26 27.06-64.26L27.06-64.26Q35.58-64.26 42.06-58.99Z" transform="translate(280.248046875 418) " fill="rgb(246, 52, 52)" stroke="rgb(246, 52, 52)" stroke-width="0.178" data-glyph-w="56.37353515625" data-glyph-h="111.4931640625" data-glyph-ascender="89.654296875" data-glyph-descender="-21.8388671875"></path><path d="" transform="translate(336.62158203125 418) " fill="rgb(36, 145, 246)" stroke="rgb(36, 145, 246)" stroke-width="0.178" data-glyph-w="42.586" data-glyph-h="107" data-glyph-ascender="94.16" data-glyph-descender="-12.84"></path><path d="M41.80-10.97Q59.77-10.97 71.37-24.76L71.37-24.76L63.22-31.66Q54.81-21.63 41.80-21.63L41.80-21.63Q30.20-21.63 22.00-29.83L22.00-29.83Q13.79-38.04 13.79-49.63L13.79-49.63Q13.79-61.23 22.00-69.44L22.00-69.44Q30.20-77.59 41.80-77.59L41.80-77.59Q54.81-77.59 63.22-67.61L63.22-67.61L71.37-74.45Q59.77-88.30 41.80-88.30L41.80-88.30Q25.76-88.30 14.47-76.96L14.47-76.96Q3.13-65.62 3.13-49.63L3.13-49.63Q3.13-33.59 14.47-22.31L14.47-22.31Q25.76-10.97 41.80-10.97L41.80-10.97Z" transform="translate(379.20758203125 418) " fill="rgb(246, 149, 52)" stroke="rgb(246, 149, 52)" stroke-width="0.178" data-glyph-w="74.5029296875" data-glyph-h="111.4931640625" data-glyph-ascender="89.654296875" data-glyph-descender="-21.8388671875"></path><path d="M54.86-32.29L13.64-32.29Q14.79-29.00 17.45-26.33L17.45-26.33Q22.10-21.63 28.74-21.63L28.74-21.63Q37.04-21.63 41.85-28.47L41.85-28.47L50.57-22.36Q42.63-10.97 28.74-10.97L28.74-10.97Q17.71-10.97 9.93-18.81L9.93-18.81Q2.09-26.59 2.09-37.62L2.09-37.62Q2.09-48.69 9.93-56.48L9.93-56.48Q17.71-64.26 28.74-64.26L28.74-64.26Q39.81-64.26 47.60-56.48L47.60-56.48Q55.38-48.69 55.38-37.62L55.38-37.62Q55.38-34.95 54.86-32.29L54.86-32.29ZM13.64-42.95L43.89-42.95Q42.74-46.29 40.07-48.95L40.07-48.95Q35.37-53.60 28.74-53.60L28.74-53.60Q22.10-53.60 17.45-48.95L17.45-48.95Q14.79-46.29 13.64-42.95L13.64-42.95Z" transform="translate(453.71051171875 418) " fill="rgb(246, 52, 52)" stroke="rgb(246, 52, 52)" stroke-width="0.178" data-glyph-w="57.470703125" data-glyph-h="111.4931640625" data-glyph-ascender="89.654296875" data-glyph-descender="-21.8388671875"></path><path d="M14.32-40.44L14.32-40.44L14.32-12.33L3.66-12.33L3.66-62.96L14.32-62.96L14.32-58.93Q20.53-64.26 29.00-64.26L29.00-64.26Q38.35-64.26 44.98-57.68L44.98-57.68Q51.62-51.10 51.62-41.74L51.62-41.74L51.62-12.33L40.96-12.33L40.96-40.44Q40.96-45.92 37.09-49.79L37.09-49.79Q33.18-53.71 27.64-53.71L27.64-53.71Q22.15-53.71 18.23-49.79L18.23-49.79Q14.32-45.92 14.32-40.44Z" transform="translate(511.18121484375 418) " fill="rgb(246, 52, 52)" stroke="rgb(246, 52, 52)" stroke-width="0.178" data-glyph-w="55.2763671875" data-glyph-h="111.4931640625" data-glyph-ascender="89.654296875" data-glyph-descender="-21.8388671875"></path><path d="M11.39-62.96L2.09-62.96L2.09-52.30L11.39-52.30L11.39-28.32Q11.39-21.68 16.09-16.98L16.09-16.98Q20.79-12.33 27.38-12.33L27.38-12.33L34.06-12.33L34.06-22.99L27.38-22.99Q25.18-22.99 23.62-24.56L23.62-24.56Q22.05-26.07 22.05-28.32L22.05-28.32L22.05-52.30L34.06-52.30L34.06-62.96L22.05-62.96L22.05-78.94L11.39-78.94L11.39-62.96Z" transform="translate(566.45758203125 418) " fill="rgb(246, 52, 52)" stroke="rgb(246, 52, 52)" stroke-width="0.178" data-glyph-w="36.154296875" data-glyph-h="111.4931640625" data-glyph-ascender="89.654296875" data-glyph-descender="-21.8388671875"></path><path d="M54.86-32.29L13.64-32.29Q14.79-29.00 17.45-26.33L17.45-26.33Q22.10-21.63 28.74-21.63L28.74-21.63Q37.04-21.63 41.85-28.47L41.85-28.47L50.57-22.36Q42.63-10.97 28.74-10.97L28.74-10.97Q17.71-10.97 9.93-18.81L9.93-18.81Q2.09-26.59 2.09-37.62L2.09-37.62Q2.09-48.69 9.93-56.48L9.93-56.48Q17.71-64.26 28.74-64.26L28.74-64.26Q39.81-64.26 47.60-56.48L47.60-56.48Q55.38-48.69 55.38-37.62L55.38-37.62Q55.38-34.95 54.86-32.29L54.86-32.29ZM13.64-42.95L43.89-42.95Q42.74-46.29 40.07-48.95L40.07-48.95Q35.37-53.60 28.74-53.60L28.74-53.60Q22.10-53.60 17.45-48.95L17.45-48.95Q14.79-46.29 13.64-42.95L13.64-42.95Z" transform="translate(602.61187890625 418) " fill="rgb(246, 52, 52)" stroke="rgb(246, 52, 52)" stroke-width="0.178" data-glyph-w="57.470703125" data-glyph-h="111.4931640625" data-glyph-ascender="89.654296875" data-glyph-descender="-21.8388671875"></path><path d="M14.32-40.28L14.32-40.28L14.32-12.33L3.66-12.33L3.66-62.96L14.32-62.96L14.32-59.30Q20.64-64.26 29.00-64.26L29.00-64.26Q30.30-64.26 31.66-64.16L31.66-64.16L31.66-53.03Q29.73-53.60 27.64-53.60L27.64-53.60Q22.15-53.60 18.23-49.74L18.23-49.74Q14.32-45.82 14.32-40.28Z" transform="translate(660.08258203125 418) " fill="rgb(246, 52, 52)" stroke="rgb(246, 52, 52)" stroke-width="0.178" data-glyph-w="33.7509765625" data-glyph-h="111.4931640625" data-glyph-ascender="89.654296875" data-glyph-descender="-21.8388671875"></path></g></svg></g></g><g id="shape_R7xccpZOVN" transform="translate(139.1303320251199,255.51000000000002) rotate(0,159.21015075377,105.68321608040199) scale(1,1)" filter="" style="cursor: move; opacity: 1;"><g><svg xmlns="http://www.w3.org/2000/svg" version="1.1" xmlns:xlink="http://www.w3.org/1999/xlink" width="393.72" height="211.57999999999998" viewBox="0 0 393.72 211.57999999999998" data-parent="shape_R7xccpZOVN"><rect fill="rgba(0,0,0,0)" width="276" height="35" x="29.43" y="88.28999999999999"></rect><g data-width="275.20360874999994" transform="translate(30.226391250000056, 0)"><path d="M9.50-3.02Q12.85-3.02 15.20-4.96L15.20-4.96Q17.56-6.88 17.56-9.61L17.56-9.61L17.56-23.91L15.36-23.91L15.36-9.61Q15.36-7.79 13.65-6.51L13.65-6.51Q11.93-5.22 9.50-5.22L9.50-5.22Q7.07-5.22 5.36-6.51L5.36-6.51Q3.64-7.79 3.64-9.61L3.64-9.61L3.64-23.91L1.44-23.91L1.44-9.61Q1.44-6.88 3.79-4.96L3.79-4.96Q6.16-3.02 9.50-3.02L9.50-3.02Z" transform="translate(0 114.28999999999999) " fill="#F63434" stroke="#F63434" stroke-width="0.049" data-glyph-w="18.997294921875" data-glyph-h="30.665830078125" data-glyph-ascender="24.65912109375" data-glyph-descender="-6.006708984375"></path><path d="M3.20-11.08L3.20-11.08L3.20-3.39L1.01-3.39L1.01-17.32L3.20-17.32L3.20-15.76Q3.22-15.78 3.25-15.81L3.25-15.81Q5.13-17.68 7.79-17.68L7.79-17.68Q10.45-17.68 12.33-15.81L12.33-15.81Q14.20-13.92 14.20-11.27L14.20-11.27L14.20-3.39L12.00-3.39L12.00-11.08Q12.00-12.90 10.72-14.20L10.72-14.20Q9.43-15.48 7.60-15.48L7.60-15.48Q5.78-15.48 4.50-14.20L4.50-14.20Q3.20-12.90 3.20-11.08Z" transform="translate(18.997294921875 114.28999999999999) " fill="#F63434" stroke="#F63434" stroke-width="0.049" data-glyph-w="15.203583984375" data-glyph-h="30.665830078125" data-glyph-ascender="24.65912109375" data-glyph-descender="-6.006708984375"></path><path d="M3.20-3.39L3.20-23.91L1.01-23.91L1.01-3.39L3.20-3.39Z" transform="translate(34.20087890625 114.28999999999999) " fill="#F63434" stroke="#F63434" stroke-width="0.049" data-glyph-w="4.2104443359375" data-glyph-h="30.665830078125" data-glyph-ascender="24.65912109375" data-glyph-descender="-6.006708984375"></path><path d="M3.64-3.39L3.64-17.32L1.44-17.32L1.44-3.39L3.64-3.39ZM2.53-24.29Q3.13-24.29 3.56-23.85L3.56-23.85Q3.99-23.42 3.99-22.82L3.99-22.82Q3.99-22.20 3.56-21.77L3.56-21.77Q3.13-21.34 2.53-21.34L2.53-21.34Q1.93-21.34 1.49-21.77L1.49-21.77Q1.06-22.20 1.06-22.82L1.06-22.82Q1.06-23.42 1.49-23.85L1.49-23.85Q1.93-24.29 2.53-24.29L2.53-24.29Z" transform="translate(38.4113232421875 114.28999999999999) " fill="#F63434" stroke="#F63434" stroke-width="0.049" data-glyph-w="5.0726513671874995" data-glyph-h="30.665830078125" data-glyph-ascender="24.65912109375" data-glyph-descender="-6.006708984375"></path><path d="M3.20-12.00L3.20-3.39L1.01-3.39L1.01-17.32L3.20-17.32L3.20-16.27Q4.74-17.68 6.87-17.68L6.87-17.68Q9.15-17.68 10.76-16.07L10.76-16.07Q11.06-15.76 11.32-15.43L11.32-15.43Q11.55-15.74 11.84-16.02L11.84-16.02Q13.49-17.68 15.85-17.68L15.85-17.68Q18.21-17.68 19.87-16.02L19.87-16.02Q21.53-14.36 21.53-12.00L21.53-12.00L21.53-3.39L19.33-3.39L19.33-12.00Q19.33-13.44 18.31-14.46L18.31-14.46Q17.29-15.48 15.85-15.48L15.85-15.48Q14.41-15.48 13.39-14.46L13.39-14.46Q12.37-13.44 12.37-12.00L12.37-12.00L12.37-3.39L10.17-3.39L10.17-12.00Q10.17-13.44 9.15-14.46L9.15-14.46Q8.13-15.48 6.68-15.48L6.68-15.48Q5.25-15.48 4.22-14.46L4.22-14.46Q3.20-13.44 3.20-12.00L3.20-12.00Z" transform="translate(43.483974609375 114.28999999999999) " fill="#F63434" stroke="#F63434" stroke-width="0.049" data-glyph-w="22.53234375" data-glyph-h="30.665830078125" data-glyph-ascender="24.65912109375" data-glyph-descender="-6.006708984375"></path><path d="M3.64-3.39L3.64-17.32L1.44-17.32L1.44-3.39L3.64-3.39ZM2.53-24.29Q3.13-24.29 3.56-23.85L3.56-23.85Q3.99-23.42 3.99-22.82L3.99-22.82Q3.99-22.20 3.56-21.77L3.56-21.77Q3.13-21.34 2.53-21.34L2.53-21.34Q1.93-21.34 1.49-21.77L1.49-21.77Q1.06-22.20 1.06-22.82L1.06-22.82Q1.06-23.42 1.49-23.85L1.49-23.85Q1.93-24.29 2.53-24.29L2.53-24.29Z" transform="translate(66.01631835937499 114.28999999999999) " fill="#F63434" stroke="#F63434" stroke-width="0.049" data-glyph-w="5.0726513671874995" data-glyph-h="30.665830078125" data-glyph-ascender="24.65912109375" data-glyph-descender="-6.006708984375"></path><path d="M3.51-15.12L3.51-7.41Q3.51-5.75 4.68-4.57L4.68-4.57Q5.86-3.39 7.53-3.39L7.53-3.39L9.37-3.39L9.37-5.59L7.53-5.59Q6.78-5.59 6.24-6.12L6.24-6.12Q5.70-6.67 5.70-7.41L5.70-7.41L5.70-15.12L9.37-15.12L9.37-17.32L5.70-17.32L5.70-21.71L3.51-21.71L3.51-17.32L0.57-17.32L0.57-15.12L3.51-15.12Z" transform="translate(71.0889697265625 114.28999999999999) " fill="#F63434" stroke="#F63434" stroke-width="0.049" data-glyph-w="9.94412109375" data-glyph-h="30.665830078125" data-glyph-ascender="24.65912109375" data-glyph-descender="-6.006708984375"></path><path d="M2.89-9.25L15.16-9.25Q15.23-9.80 15.23-10.35L15.23-10.35Q15.23-13.39 13.09-15.53L13.09-15.53Q10.95-17.68 7.90-17.68L7.90-17.68Q4.87-17.68 2.73-15.53L2.73-15.53Q0.57-13.39 0.57-10.35L0.57-10.35Q0.57-7.31 2.73-5.17L2.73-5.17Q4.87-3.02 7.90-3.02L7.90-3.02Q11.73-3.02 13.91-6.15L13.91-6.15L12.11-7.40Q10.58-5.22 7.90-5.22L7.90-5.22Q5.78-5.22 4.28-6.73L4.28-6.73Q3.18-7.82 2.89-9.25L2.89-9.25ZM2.89-11.45Q3.18-12.88 4.28-13.98L4.28-13.98Q5.78-15.48 7.90-15.48L7.90-15.48Q10.03-15.48 11.54-13.98L11.54-13.98Q12.63-12.88 12.92-11.45L12.92-11.45L2.89-11.45Z" transform="translate(81.0330908203125 114.28999999999999) " fill="#F63434" stroke="#F63434" stroke-width="0.049" data-glyph-w="15.80712890625" data-glyph-h="30.665830078125" data-glyph-ascender="24.65912109375" data-glyph-descender="-6.006708984375"></path><path d="M7.54-15.48Q5.56-15.48 4.17-13.98L4.17-13.98Q2.77-12.47 2.77-10.35L2.77-10.35Q2.77-8.22 4.17-6.73L4.17-6.73Q5.56-5.22 7.54-5.22L7.54-5.22Q9.51-5.22 10.91-6.73L10.91-6.73Q12.30-8.22 12.30-10.35L12.30-10.35Q12.30-12.47 10.91-13.98L10.91-13.98Q9.51-15.48 7.54-15.48L7.54-15.48ZM12.30-3.39L12.30-5.02Q10.32-3.02 7.54-3.02L7.54-3.02Q4.66-3.02 2.62-5.17L2.62-5.17Q0.57-7.31 0.57-10.35L0.57-10.35Q0.57-13.39 2.62-15.53L2.62-15.53Q4.66-17.68 7.54-17.68L7.54-17.68Q10.32-17.68 12.30-15.69L12.30-15.69L12.30-23.91L14.50-23.91L14.50-3.39L12.30-3.39Z" transform="translate(96.8402197265625 114.28999999999999) " fill="#F63434" stroke="#F63434" stroke-width="0.049" data-glyph-w="15.5053564453125" data-glyph-h="30.665830078125" data-glyph-ascender="24.65912109375" data-glyph-descender="-6.006708984375"></path><path d="" transform="translate(112.345576171875 114.28999999999999) " fill="#F63434" stroke="#F63434" stroke-width="0.049" data-glyph-w="11.713140000000001" data-glyph-h="29.43" data-glyph-ascender="25.898400000000002" data-glyph-descender="-3.5316"></path><path d="M7.90-17.68Q11.71-17.68 13.91-14.56L13.91-14.56L12.11-13.29Q10.58-15.48 7.90-15.48L7.90-15.48Q5.78-15.48 4.28-13.98L4.28-13.98Q2.77-12.47 2.77-10.35L2.77-10.35Q2.77-8.22 4.28-6.73L4.28-6.73Q5.78-5.22 7.90-5.22L7.90-5.22Q10.58-5.22 12.11-7.40L12.11-7.40L13.91-6.15Q11.71-3.02 7.90-3.02L7.90-3.02Q4.87-3.02 2.72-5.17L2.72-5.17Q0.57-7.31 0.57-10.35L0.57-10.35Q0.57-13.39 2.72-15.53L2.72-15.53Q4.87-17.68 7.90-17.68L7.90-17.68Z" transform="translate(124.05871617187499 114.28999999999999) " fill="#F63434" stroke="#F63434" stroke-width="0.049" data-glyph-w="14.485078125" data-glyph-h="30.665830078125" data-glyph-ascender="24.65912109375" data-glyph-descender="-6.006708984375"></path><path d="M7.90-17.68Q10.94-17.68 13.09-15.53L13.09-15.53Q15.23-13.39 15.23-10.35L15.23-10.35Q15.23-7.31 13.09-5.17L13.09-5.17Q10.94-3.02 7.90-3.02L7.90-3.02Q4.87-3.02 2.72-5.17L2.72-5.17Q0.57-7.31 0.57-10.35L0.57-10.35Q0.57-13.39 2.72-15.53L2.72-15.53Q4.87-17.68 7.90-17.68L7.90-17.68ZM11.54-13.98Q10.03-15.48 7.90-15.48L7.90-15.48Q5.78-15.48 4.28-13.98L4.28-13.98Q2.77-12.47 2.77-10.35L2.77-10.35Q2.77-8.22 4.28-6.73L4.28-6.73Q5.78-5.22 7.90-5.22L7.90-5.22Q10.03-5.22 11.54-6.73L11.54-6.73Q13.03-8.22 13.03-10.35L13.03-10.35Q13.03-12.47 11.54-13.98L11.54-13.98Z" transform="translate(138.54379429687498 114.28999999999999) " fill="#F63434" stroke="#F63434" stroke-width="0.049" data-glyph-w="15.80712890625" data-glyph-h="30.665830078125" data-glyph-ascender="24.65912109375" data-glyph-descender="-6.006708984375"></path><path d="M3.20-11.08L3.20-11.08L3.20-3.39L1.01-3.39L1.01-17.32L3.20-17.32L3.20-15.76Q3.22-15.78 3.25-15.81L3.25-15.81Q5.13-17.68 7.79-17.68L7.79-17.68Q10.45-17.68 12.33-15.81L12.33-15.81Q14.20-13.92 14.20-11.27L14.20-11.27L14.20-3.39L12.00-3.39L12.00-11.08Q12.00-12.90 10.72-14.20L10.72-14.20Q9.43-15.48 7.60-15.48L7.60-15.48Q5.78-15.48 4.50-14.20L4.50-14.20Q3.20-12.90 3.20-11.08Z" transform="translate(154.35092320312498 114.28999999999999) " fill="#F63434" stroke="#F63434" stroke-width="0.049" data-glyph-w="15.203583984375" data-glyph-h="30.665830078125" data-glyph-ascender="24.65912109375" data-glyph-descender="-6.006708984375"></path><path d="M3.20-11.08L3.20-11.08L3.20-3.39L1.01-3.39L1.01-17.32L3.20-17.32L3.20-15.76Q3.22-15.78 3.25-15.81L3.25-15.81Q5.13-17.68 7.79-17.68L7.79-17.68Q10.45-17.68 12.33-15.81L12.33-15.81Q14.20-13.92 14.20-11.27L14.20-11.27L14.20-3.39L12.00-3.39L12.00-11.08Q12.00-12.90 10.72-14.20L10.72-14.20Q9.43-15.48 7.60-15.48L7.60-15.48Q5.78-15.48 4.50-14.20L4.50-14.20Q3.20-12.90 3.20-11.08Z" transform="translate(169.55450718749998 114.28999999999999) " fill="#F63434" stroke="#F63434" stroke-width="0.049" data-glyph-w="15.203583984375" data-glyph-h="30.665830078125" data-glyph-ascender="24.65912109375" data-glyph-descender="-6.006708984375"></path><path d="M2.89-9.25L15.16-9.25Q15.23-9.80 15.23-10.35L15.23-10.35Q15.23-13.39 13.09-15.53L13.09-15.53Q10.95-17.68 7.90-17.68L7.90-17.68Q4.87-17.68 2.73-15.53L2.73-15.53Q0.57-13.39 0.57-10.35L0.57-10.35Q0.57-7.31 2.73-5.17L2.73-5.17Q4.87-3.02 7.90-3.02L7.90-3.02Q11.73-3.02 13.91-6.15L13.91-6.15L12.11-7.40Q10.58-5.22 7.90-5.22L7.90-5.22Q5.78-5.22 4.28-6.73L4.28-6.73Q3.18-7.82 2.89-9.25L2.89-9.25ZM2.89-11.45Q3.18-12.88 4.28-13.98L4.28-13.98Q5.78-15.48 7.90-15.48L7.90-15.48Q10.03-15.48 11.54-13.98L11.54-13.98Q12.63-12.88 12.92-11.45L12.92-11.45L2.89-11.45Z" transform="translate(184.75809117187498 114.28999999999999) " fill="#F63434" stroke="#F63434" stroke-width="0.049" data-glyph-w="15.80712890625" data-glyph-h="30.665830078125" data-glyph-ascender="24.65912109375" data-glyph-descender="-6.006708984375"></path><path d="M7.90-17.68Q11.71-17.68 13.91-14.56L13.91-14.56L12.11-13.29Q10.58-15.48 7.90-15.48L7.90-15.48Q5.78-15.48 4.28-13.98L4.28-13.98Q2.77-12.47 2.77-10.35L2.77-10.35Q2.77-8.22 4.28-6.73L4.28-6.73Q5.78-5.22 7.90-5.22L7.90-5.22Q10.58-5.22 12.11-7.40L12.11-7.40L13.91-6.15Q11.71-3.02 7.90-3.02L7.90-3.02Q4.87-3.02 2.72-5.17L2.72-5.17Q0.57-7.31 0.57-10.35L0.57-10.35Q0.57-13.39 2.72-15.53L2.72-15.53Q4.87-17.68 7.90-17.68L7.90-17.68Z" transform="translate(200.56522007812498 114.28999999999999) " fill="#F63434" stroke="#F63434" stroke-width="0.049" data-glyph-w="14.485078125" data-glyph-h="30.665830078125" data-glyph-ascender="24.65912109375" data-glyph-descender="-6.006708984375"></path><path d="M3.51-15.12L3.51-7.41Q3.51-5.75 4.68-4.57L4.68-4.57Q5.86-3.39 7.53-3.39L7.53-3.39L9.37-3.39L9.37-5.59L7.53-5.59Q6.78-5.59 6.24-6.12L6.24-6.12Q5.70-6.67 5.70-7.41L5.70-7.41L5.70-15.12L9.37-15.12L9.37-17.32L5.70-17.32L5.70-21.71L3.51-21.71L3.51-17.32L0.57-17.32L0.57-15.12L3.51-15.12Z" transform="translate(215.05029820312498 114.28999999999999) " fill="#F63434" stroke="#F63434" stroke-width="0.049" data-glyph-w="9.94412109375" data-glyph-h="30.665830078125" data-glyph-ascender="24.65912109375" data-glyph-descender="-6.006708984375"></path><path d="M3.64-3.39L3.64-17.32L1.44-17.32L1.44-3.39L3.64-3.39ZM2.53-24.29Q3.13-24.29 3.56-23.85L3.56-23.85Q3.99-23.42 3.99-22.82L3.99-22.82Q3.99-22.20 3.56-21.77L3.56-21.77Q3.13-21.34 2.53-21.34L2.53-21.34Q1.93-21.34 1.49-21.77L1.49-21.77Q1.06-22.20 1.06-22.82L1.06-22.82Q1.06-23.42 1.49-23.85L1.49-23.85Q1.93-24.29 2.53-24.29L2.53-24.29Z" transform="translate(224.99441929687498 114.28999999999999) " fill="#F63434" stroke="#F63434" stroke-width="0.049" data-glyph-w="5.0726513671874995" data-glyph-h="30.665830078125" data-glyph-ascender="24.65912109375" data-glyph-descender="-6.006708984375"></path><path d="M7.90-17.68Q10.94-17.68 13.09-15.53L13.09-15.53Q15.23-13.39 15.23-10.35L15.23-10.35Q15.23-7.31 13.09-5.17L13.09-5.17Q10.94-3.02 7.90-3.02L7.90-3.02Q4.87-3.02 2.72-5.17L2.72-5.17Q0.57-7.31 0.57-10.35L0.57-10.35Q0.57-13.39 2.72-15.53L2.72-15.53Q4.87-17.68 7.90-17.68L7.90-17.68ZM11.54-13.98Q10.03-15.48 7.90-15.48L7.90-15.48Q5.78-15.48 4.28-13.98L4.28-13.98Q2.77-12.47 2.77-10.35L2.77-10.35Q2.77-8.22 4.28-6.73L4.28-6.73Q5.78-5.22 7.90-5.22L7.90-5.22Q10.03-5.22 11.54-6.73L11.54-6.73Q13.03-8.22 13.03-10.35L13.03-10.35Q13.03-12.47 11.54-13.98L11.54-13.98Z" transform="translate(230.06707066406247 114.28999999999999) " fill="#F63434" stroke="#F63434" stroke-width="0.049" data-glyph-w="15.80712890625" data-glyph-h="30.665830078125" data-glyph-ascender="24.65912109375" data-glyph-descender="-6.006708984375"></path><path d="M3.20-11.08L3.20-11.08L3.20-3.39L1.01-3.39L1.01-17.32L3.20-17.32L3.20-15.76Q3.22-15.78 3.25-15.81L3.25-15.81Q5.13-17.68 7.79-17.68L7.79-17.68Q10.45-17.68 12.33-15.81L12.33-15.81Q14.20-13.92 14.20-11.27L14.20-11.27L14.20-3.39L12.00-3.39L12.00-11.08Q12.00-12.90 10.72-14.20L10.72-14.20Q9.43-15.48 7.60-15.48L7.60-15.48Q5.78-15.48 4.50-14.20L4.50-14.20Q3.20-12.90 3.20-11.08Z" transform="translate(245.87419957031247 114.28999999999999) " fill="#F63434" stroke="#F63434" stroke-width="0.049" data-glyph-w="15.203583984375" data-glyph-h="30.665830078125" data-glyph-ascender="24.65912109375" data-glyph-descender="-6.006708984375"></path><path d="M7.10-17.68Q9.15-17.68 10.81-16.63L10.81-16.63Q12.37-15.65 12.88-14.23L12.88-14.23L10.76-13.67Q10.59-14.38 9.56-14.92L9.56-14.92Q8.48-15.48 7.10-15.48L7.10-15.48Q5.53-15.48 4.51-15.00L4.51-15.00Q3.43-14.50 3.43-13.65L3.43-13.65Q3.43-12.66 5.02-12.20L5.02-12.20Q5.19-12.16 8.48-11.57L8.48-11.57Q10.82-11.17 11.94-10.42L11.94-10.42Q13.52-9.40 13.52-7.41L13.52-7.41Q13.52-5.30 11.64-4.12L11.64-4.12Q9.90-3.02 7.10-3.02L7.10-3.02Q4.79-3.02 2.92-4.17L2.92-4.17Q1.02-5.35 0.57-7.10L0.57-7.10L2.82-7.49Q3.18-6.47 4.34-5.85L4.34-5.85Q5.50-5.22 7.10-5.22L7.10-5.22Q8.94-5.22 10.09-5.76L10.09-5.76Q11.32-6.37 11.32-7.41L11.32-7.41Q11.32-8.59 9.74-9.11L9.74-9.11Q9.18-9.30 6.28-9.77L6.28-9.77Q3.91-10.15 2.82-10.81L2.82-10.81Q1.24-11.75 1.24-13.65L1.24-13.65Q1.24-15.52 2.96-16.63L2.96-16.63Q4.58-17.68 7.10-17.68L7.10-17.68Z" transform="translate(261.07778355468747 114.28999999999999) " fill="#F63434" stroke="#F63434" stroke-width="0.049" data-glyph-w="14.1258251953125" data-glyph-h="30.665830078125" data-glyph-ascender="24.65912109375" data-glyph-descender="-6.006708984375"></path></g></svg></g></g>  <!----><defs><pattern id="wm_tile" x="0" y="0" width="20%" height="27%" patternunits="objectBoundingBox"><g id="wm_lm" transform="translate(-188.000000, -323.000000)" fill="#cccccc"><text font-size="15" transform="translate(270.490979, 373.245789) rotate(-390.000000) translate(-270.490979, -373.245789)"><tspan x="187.490979" opacity=".3" y="378.245789">copyright © copyright © </tspan></text></g></pattern></defs><rect x="0" y="0" width="100%" height="100%" style="fill: url(#wm_tile);"></rect></svg>